<?xml version="1.0" encoding="UTF-8"?>
<svg version="1.1" xmlns="http://www.w3.org/2000/svg" width="512" height="512">
<path d="M0 0 C0.46535156 0.50893799 0.93070313 1.01787598 1.41015625 1.54223633 C3.37197848 3.34107548 4.8566634 3.71688518 7.4375 4.32421875 C8.32268311 4.54368164 9.20786621 4.76314453 10.11987305 4.98925781 C11.54553589 5.3348877 11.54553589 5.3348877 13 5.6875 C36.19416018 11.692436 58.01940884 22.37719763 77 37 C77.86625 37.65484375 78.7325 38.3096875 79.625 38.984375 C117.366967 68.258593 141.52002636 110.20235438 150 157 C150.22816406 158.21300781 150.45632813 159.42601562 150.69140625 160.67578125 C157.0846146 201.58337314 148.60403248 243.83325239 129 280 C128.43539063 281.04542969 127.87078125 282.09085937 127.2890625 283.16796875 C120.66131025 294.94545338 112.82124526 305.52675318 103.53125 315.31640625 C101.38066547 317.59642411 99.33386276 319.91902274 97.3125 322.3125 C84.56328703 336.98466505 66.99611745 347.97093071 50 357 C49.3694873 357.33725098 48.73897461 357.67450195 48.08935547 358.02197266 C5.23111475 380.52636832 -46.89129438 383.49636028 -92.875 369.75 C-117.55190533 362.00499813 -141.56386871 349.78075276 -160.4375 331.875 C-163.72301335 328.86388117 -166.45867227 328.27306072 -170.78125 327.5625 C-174.95720322 326.50380763 -177.84046133 323.81796693 -181 321 C-181.70898438 320.38382812 -182.41796875 319.76765625 -183.1484375 319.1328125 C-193.77207948 309.25468926 -204.13568674 294.6306564 -205.8125 280 C-206.54542731 274.09469998 -208.36771102 269.26620807 -210.75 263.875 C-218.00293651 247.36712567 -222.37099848 230.83761479 -225 213 C-225.1045752 212.29673584 -225.20915039 211.59347168 -225.31689453 210.86889648 C-227.85554094 191.34311786 -226.7617482 170.27613255 -223 151 C-222.8443457 150.1862793 -222.68869141 149.37255859 -222.52832031 148.53417969 C-212.67251738 99.21582051 -181.34818136 56.71175324 -140 29 C-114.31056502 12.78958865 -86.89837106 4.55468544 -57.18359375 -0.90234375 C-50.5122908 -2.12795551 -45.72718748 -3.42050782 -40 -7 C-26.64392747 -9.61314462 -11.4247318 -7.61648786 0 0 Z " fill="#C8C8C8" transform="translate(293,71)"/>
<path d="M0 0 C6.42255373 5.2355471 11.01002139 12.04271204 12.4921875 20.3046875 C13.73257451 39.31717695 8.69677887 54.59659021 -3.5078125 69.3046875 C-4.2709375 70.3153125 -5.0340625 71.3259375 -5.8203125 72.3671875 C-15.19017516 82.60866529 -28.09519462 90.33659546 -42.12109375 91.640625 C-53.41473012 91.75988198 -61.41059205 90.10183791 -69.75390625 82.23046875 C-78.81995873 72.27598351 -79.28044615 61.54834116 -78.703125 48.69091797 C-78.27636292 43.47695231 -76.72860568 39.00145818 -74.5078125 34.3046875 C-74.07210938 33.37527344 -73.63640625 32.44585937 -73.1875 31.48828125 C-64.85433401 15.11793605 -51.62451402 3.0163164 -34.62109375 -3.86328125 C-22.81866223 -7.53323441 -10.39392863 -7.02642527 0 0 Z " fill="#E2E2E2" transform="translate(374.5078125,299.6953125)"/>
<path d="M0 0 C14.45103707 8.33632299 25.96641353 22.13671416 31.3203125 37.91796875 C33.85193541 47.99097539 32.96085481 57.63375281 28.28125 66.91796875 C23.40547314 75.00363204 16.25936808 79.74382412 7.15625 82.08984375 C-4.55810244 83.89867758 -16.03616014 79.74464185 -25.6875 73.25 C-40.67282765 61.99888021 -55.59433954 46.8710697 -58.5 27.5 C-59.43338014 18.5810342 -57.3766254 10.98776496 -52 3.75 C-38.12361532 -11.3035587 -16.41385663 -8.01717275 0 0 Z " fill="#E2E2E2" transform="translate(362.5,125.5)"/>
<path d="M0 0 C6.42255373 5.2355471 11.01002139 12.04271204 12.4921875 20.3046875 C13.73257451 39.31717695 8.69677887 54.59659021 -3.5078125 69.3046875 C-4.2709375 70.3153125 -5.0340625 71.3259375 -5.8203125 72.3671875 C-15.19017516 82.60866529 -28.09519462 90.33659546 -42.12109375 91.640625 C-53.41473012 91.75988198 -61.41059205 90.10183791 -69.75390625 82.23046875 C-78.81995873 72.27598351 -79.28044615 61.54834116 -78.703125 48.69091797 C-78.27636292 43.47695231 -76.72860568 39.00145818 -74.5078125 34.3046875 C-74.07210938 33.37527344 -73.63640625 32.44585937 -73.1875 31.48828125 C-64.85433401 15.11793605 -51.62451402 3.0163164 -34.62109375 -3.86328125 C-22.81866223 -7.53323441 -10.39392863 -7.02642527 0 0 Z M-57.59375 28.99609375 C-64.40107088 38.8624006 -68.11678172 50.28667255 -66.5078125 62.3046875 C-64.81534387 69.11259502 -62.39542128 73.4597185 -56.5078125 77.3046875 C-51.30850965 80.33761416 -44.88127616 80.06733522 -39.140625 78.76953125 C-36.87291074 78.05155251 -34.70133018 77.22364755 -32.5078125 76.3046875 C-31.85167969 76.04945313 -31.19554687 75.79421875 -30.51953125 75.53125 C-24.15682741 72.75155173 -19.4145022 68.12035935 -14.5078125 63.3046875 C-13.93933594 62.76070312 -13.37085938 62.21671875 -12.78515625 61.65625 C-3.47240757 51.87165539 1.0390776 38.16864457 0.7421875 24.8828125 C0.12772505 18.54616845 -2.67602879 14.44621639 -7.5078125 10.3046875 C-13.24702135 6.15010976 -19.49176464 6.26219612 -26.30859375 6.92578125 C-39.53301416 9.20423379 -49.69104689 18.79953487 -57.59375 28.99609375 Z " fill="#F1F1F1" transform="translate(374.5078125,299.6953125)"/>
<path d="M0 0 C14.45103707 8.33632299 25.96641353 22.13671416 31.3203125 37.91796875 C33.85193541 47.99097539 32.96085481 57.63375281 28.28125 66.91796875 C23.40547314 75.00363204 16.25936808 79.74382412 7.15625 82.08984375 C-4.55810244 83.89867758 -16.03616014 79.74464185 -25.6875 73.25 C-40.67282765 61.99888021 -55.59433954 46.8710697 -58.5 27.5 C-59.43338014 18.5810342 -57.3766254 10.98776496 -52 3.75 C-38.12361532 -11.3035587 -16.41385663 -8.01717275 0 0 Z M-43.875 11 C-48.19681326 17.64894348 -48.52664637 23.41810044 -46.953125 31.20703125 C-42.68337823 44.96286636 -29.63749023 59.77849779 -16.88671875 66.546875 C-8.41011108 70.50702541 -0.60617129 73.29473268 8.7890625 70.921875 C15.28527785 68.16286462 18.44329043 62.61341915 21.5 56.5 C22.69827766 41.88494129 18.83486843 32.59125482 9.5 21.5 C1.72986935 12.89437143 -9.18819253 5.07592354 -21.02734375 3.86328125 C-29.97110265 3.42520377 -37.4404082 4.22674548 -43.875 11 Z " fill="#F1F1F1" transform="translate(362.5,125.5)"/>
<path d="M0 0 C3.69487408 2.22756812 6.97290063 4.2672802 8.625 8.375 C10.76771177 21.03230455 6.74673312 30.10818677 -0.4921875 40.37890625 C-7.49741352 49.34110823 -16.70353975 59.99748032 -28.375 62.375 C-33.46814375 62.96331694 -37.20088913 63.02728382 -41.75 60.5 C-47.14674598 54.99593236 -48.63157393 47.98278636 -48.9375 40.5 C-48.60443765 29.93388421 -44.2831475 21.21898029 -37.375 13.375 C-36.85164062 12.77042969 -36.32828125 12.16585937 -35.7890625 11.54296875 C-26.8980045 1.96316682 -13.00822829 -5.92405084 0 0 Z " fill="#C8C8C8" transform="translate(168.375,138.625)"/>
<path d="M0 0 C7.8049667 5.18800727 12.03809366 10.46193722 14.9921875 19.32421875 C16.43149402 34.1891877 11.07169251 47.57821079 1.78515625 59.05078125 C-0.42086618 61.53866344 -2.6924976 63.93823894 -5.0078125 66.32421875 C-5.57113281 66.96101563 -6.13445312 67.5978125 -6.71484375 68.25390625 C-14.79373016 77.09940232 -25.4419614 82.20794947 -37.3203125 82.76171875 C-44.74195622 82.62522875 -50.16304811 80.5960053 -55.81640625 75.78515625 C-62.28031388 68.98273975 -65.3703256 59.19876907 -65.21875 49.9375 C-63.78544423 32.18043406 -53.6952183 17.70913672 -40.59375 6.30078125 C-29.46041423 -2.20898899 -13.04972113 -7.01730287 0 0 Z M-46.3203125 26.13671875 C-52.84723489 35.56449553 -55.43842824 44.89266309 -54.0078125 56.32421875 C-52.81514658 61.32808526 -51.02471814 65.73488885 -47.3828125 69.44921875 C-42.18231661 72.33838313 -37.67539239 72.0438948 -31.9375 70.91796875 C-18.03746161 66.64103386 -7.15217174 52.12497489 -0.3828125 40.05078125 C3.41774601 32.51444649 3.86333273 25.65053318 2.9921875 17.32421875 C1.3984826 13.20282376 -1.9517785 11.16844295 -5.6328125 8.94921875 C-21.63853154 1.87553018 -36.61218731 14.254764 -46.3203125 26.13671875 Z " fill="#F0F0F0" transform="translate(174.0078125,129.67578125)"/>
<path d="M0 0 C4.50917346 1.33982982 7.28495402 4.5367482 10.58984375 7.76953125 C11.25757812 8.40117187 11.9253125 9.0328125 12.61328125 9.68359375 C18.2763983 15.47302568 22.54911665 22.03046624 26.90234375 28.83203125 C27.50127441 29.7660376 28.10020508 30.70004395 28.71728516 31.66235352 C38.30426509 46.94623784 38.30426509 46.94623784 37.58984375 56.76953125 C34.36223984 58.3833332 32.18405206 58.16888773 28.58984375 57.76953125 C12.45444479 50.20979803 0.82112212 31.88390695 -5.41015625 15.76953125 C-6.76007184 11.71978448 -6.95943942 8.00358901 -6.41015625 3.76953125 C-4.45772194 0.73241121 -3.6673368 -0.35068537 0 0 Z " fill="#E1E1E1" transform="translate(93.41015625,341.23046875)"/>
<path d="M0 0 C5.27440258 0.31966076 8.43823349 3.39036029 12 7 C14.4364098 11.87281959 13.79858809 18.67439192 13 24 C8.10850076 38.59782845 -3.63153686 52.60485851 -16.875 60.5 C-22.44947745 63.17574917 -27.85743126 63.74425308 -34 63 C-37.125 61.125 -37.125 61.125 -39 59 C-39 58.34 -39 57.68 -39 57 C-38.03320312 56.72027344 -37.06640625 56.44054687 -36.0703125 56.15234375 C-27.67468261 53.61247116 -20.80697996 50.72235129 -14 45 C-13.37867188 44.50113281 -12.75734375 44.00226563 -12.1171875 43.48828125 C-4.86732246 37.03492604 2.16333601 25.38232929 3.265625 15.65625 C3.23215503 11.03739401 2.75782156 7.34285326 1 3 C0.505 1.515 0.505 1.515 0 0 Z " fill="#ADADAD" transform="translate(164,138)"/>
<path d="M0 0 C0.1875 2.875 0.1875 2.875 0 6 C-6.9798642 10.6532428 -17.86693729 7.90028462 -25.8125 6.6875 C-26.60011719 6.56995361 -27.38773437 6.45240723 -28.19921875 6.33129883 C-34.15311909 5.35088489 -39.57652541 3.71173729 -45 1 C-45.3125 -1.3125 -45.3125 -1.3125 -45 -4 C-33.85648871 -13.45510049 -11.07809733 -7.13921828 0 0 Z " fill="#E1E1E1" transform="translate(293,71)"/>
<path d="M0 0 C3.5565679 0 5.59789453 1.23586203 8.125 3.5625 C16.1308962 12.09051986 22.32821247 22.52260182 28.125 32.625 C28.50317871 33.27525146 28.88135742 33.92550293 29.27099609 34.59545898 C31.38682548 38.38849421 32.56099712 41.67648678 33 46 C23.62059763 44.69011795 16.61209633 35.04205455 11 28 C-2.21175941 8.75526019 -2.21175941 8.75526019 -1 1 C-0.67 0.67 -0.34 0.34 0 0 Z " fill="#C8C8C8" transform="translate(93,347)"/>
<path d="M0 0 C3.04540629 3.04540629 3.17723446 5.80805564 3.25 9.9375 C3.03988698 25.88507839 -3.95682794 37.93731703 -15 49 C-15.56460938 49.57621094 -16.12921875 50.15242188 -16.7109375 50.74609375 C-24.24774989 57.82334441 -33.98097581 62.20025366 -44.3125 62.0625 C-45.19550781 62.05347656 -46.07851563 62.04445313 -46.98828125 62.03515625 C-47.65214844 62.02355469 -48.31601562 62.01195312 -49 62 C-49.33 61.34 -49.66 60.68 -50 60 C-48.80375 59.814375 -47.6075 59.62875 -46.375 59.4375 C-32.51729839 56.29496609 -20.51686724 47.79146739 -12.37109375 36.23046875 C-9.56049094 31.65823454 -7.23740792 26.8731674 -5 22 C-4.51853516 20.98292969 -4.51853516 20.98292969 -4.02734375 19.9453125 C-1.32975328 13.62834185 -0.80773507 6.76596903 0 0 Z " fill="#A2A2A2" transform="translate(372,317)"/>
<path d="M0 0 C3.40556126 3.40556126 3.26996638 6.93755662 3.4375 11.5625 C3.37803138 18.75076978 1.82737241 23.62573572 -3 29 C-5.30700724 30.79115469 -7.29521561 31.80365306 -10 33 C-10.99 33.495 -10.99 33.495 -12 34 C-20.50129986 35.06647131 -27.54010118 33.11666657 -35 29 C-35.33 28.34 -35.66 27.68 -36 27 C-34.88882812 27.05800781 -33.77765625 27.11601562 -32.6328125 27.17578125 C-23.92884477 27.49488758 -16.13676122 27.76843482 -9 22 C-4.55276735 17.49311743 -2.96894656 13.76041081 -1.6875 7.625 C-1.51927734 6.88894531 -1.35105469 6.15289062 -1.17773438 5.39453125 C-0.76983362 3.59976793 -0.38272414 1.80030015 0 0 Z " fill="#A1A1A1" transform="translate(381,163)"/>
<path d="M0 0 C2.30074345 1.17136391 4.00358636 2.3458287 6 4 C5.67 4.66 5.34 5.32 5 6 C-7.59674369 6.48866678 -20.69774854 6.21710905 -32 0 C-28.15626525 -7.6874695 -6.20656192 -2.09515297 0 0 Z " fill="#C9C9C9" transform="translate(284,70)"/>
<path d="M0 0 C0 3 0 3 -1.53125 4.82421875 C-2.1809375 5.43910156 -2.830625 6.05398438 -3.5 6.6875 C-4.1496875 7.31011719 -4.799375 7.93273437 -5.46875 8.57421875 C-5.9740625 9.04472656 -6.479375 9.51523437 -7 10 C-7.66 9.67 -8.32 9.34 -9 9 C-6.21000549 5.51250686 -3.74764169 2.49842779 0 0 Z " fill="#D8D8D8" transform="translate(368,372)"/>
</svg>
