<?xml version="1.0" encoding="UTF-8"?>
<svg version="1.1" xmlns="http://www.w3.org/2000/svg" width="512" height="512">
<path d="M0 0 C0.96494385 0.00021149 1.9298877 0.00042297 2.92407227 0.00064087 C18.83060339 0.0353275 34.08622663 1.04865983 49.6875 4.375 C51.01297852 4.64787842 51.01297852 4.64787842 52.36523438 4.92626953 C93.59002828 13.63014583 131.89497531 33.69079232 162.6875 62.375 C164.07894666 63.58838219 165.47458639 64.79697803 166.875 66 C173.36860756 71.68840022 178.96278833 77.76478377 184.37109375 84.5 C185.86245378 86.3509966 187.37411746 88.18590849 188.91015625 90 C199.61874514 102.6916609 207.98069543 116.71057305 215.6875 131.375 C216.03522461 132.0256543 216.38294922 132.67630859 216.74121094 133.34667969 C227.91007442 154.49669337 234.99344915 178.82686133 238.6875 202.375 C238.87006348 203.53056396 239.05262695 204.68612793 239.24072266 205.87670898 C240.84105387 217.14671737 241.08666633 228.3157749 241.0625 239.6875 C241.06168427 241.13641129 241.06168427 241.13641129 241.06085205 242.61459351 C240.99872837 266.68801709 237.65834367 289.29282037 230.6875 312.375 C230.43661621 313.21015137 230.18573242 314.04530273 229.92724609 314.90576172 C219.88246387 347.52062052 201.89838189 377.45809584 178.6875 402.375 C177.47411781 403.76644666 176.26552197 405.16208639 175.0625 406.5625 C169.37409978 413.05610756 163.29771623 418.65028833 156.5625 424.05859375 C154.7115034 425.54995378 152.87659151 427.06161746 151.0625 428.59765625 C138.3708391 439.30624514 124.35192695 447.66819543 109.6875 455.375 C109.0368457 455.72272461 108.38619141 456.07044922 107.71582031 456.42871094 C86.56580663 467.59757442 62.23563867 474.68094915 38.6875 478.375 C37.53193604 478.55756348 36.37637207 478.74012695 35.18579102 478.92822266 C23.91578263 480.52855387 12.7467251 480.77416633 1.375 480.75 C0.40905914 480.74945618 -0.55688171 480.74891235 -1.55209351 480.74835205 C-17.44927694 480.70732791 -32.7320568 479.78257363 -48.3125 476.375 C-49.29863281 476.16069336 -50.28476563 475.94638672 -51.30078125 475.72558594 C-92.44383101 466.46435554 -130.42236543 447.15013436 -161.3125 418.375 C-162.70394666 417.16161781 -164.09958639 415.95302197 -165.5 414.75 C-171.9992634 409.05664526 -177.60019817 402.97633107 -183.0078125 396.23046875 C-184.45361475 394.43914427 -185.92426159 392.66729794 -187.4296875 390.92578125 C-219.07525899 354.00594785 -239.10652202 301.4954789 -239.55078125 252.8203125 C-239.5605751 251.92929337 -239.57036896 251.03827423 -239.58045959 250.12025452 C-239.82758714 221.79101087 -237.5466722 195.64037141 -229.3125 168.375 C-228.93617432 167.12227295 -228.93617432 167.12227295 -228.55224609 165.84423828 C-215.18271642 122.43410624 -187.11864361 81.40357963 -151.3125 53.375 C-150.32765625 52.58480469 -149.3428125 51.79460937 -148.328125 50.98046875 C-106.04953014 17.35885604 -53.80535707 -0.10917732 0 0 Z " fill="#9A9A9C" transform="translate(255.3125,15.625)"/>
<path d="M0 0 C0 3 0 3 -1.46875 4.65625 C-2.1390625 5.2646875 -2.809375 5.873125 -3.5 6.5 C-8.38281053 11.21976413 -12.18089522 16.40153958 -16 22 C-16.721875 23.03898437 -17.44375 24.07796875 -18.1875 25.1484375 C-41.74281492 59.84505715 -50.55371941 104.12167534 -43.3125 145.375 C-41.56705166 154.49142948 -39.1122871 163.26375551 -36 172 C-35.55443531 173.31241441 -35.10912673 174.62491579 -34.6640625 175.9375 C-27.24109627 197.26972212 -14.7734686 216.24930888 -1 234 C0.19148391 235.53858976 1.37948263 237.07989086 2.5625 238.625 C3.03816406 239.23601562 3.51382813 239.84703125 4.00390625 240.4765625 C5 242 5 242 5 244 C5.88993652 244.38369751 5.88993652 244.38369751 6.79785156 244.77514648 C9.21943475 246.12205146 10.48126694 247.46556277 12.234375 249.59765625 C21.68262701 260.74890789 32.34171473 271.17751385 44 280 C44.95036133 280.72509766 44.95036133 280.72509766 45.91992188 281.46484375 C50.58194194 285.01892801 55.25446186 288.55791327 60 292 C60.56380371 292.41040527 61.12760742 292.82081055 61.70849609 293.24365234 C64.38814654 295.12394943 65.64662417 296 69 296 C70.45034604 294.69543498 70.45034604 294.69543498 71.6875 293 C72.450625 292.01 73.21375 291.02 74 290 C74.33 290.66 74.66 291.32 75 292 C74.33333333 293.33333333 73.66666667 294.66666667 73 296 C73 297.32 73 298.64 73 300 C99.8446367 315.29791751 127.12565936 326.73404569 157.375 333.375 C158.45418701 333.61379883 159.53337402 333.85259766 160.64526367 334.09863281 C177.22833664 337.53845373 193.78167473 338.35197186 210.67773438 338.31567383 C213.73343778 338.31251711 216.78816531 338.33607738 219.84375 338.36132812 C270.58774248 338.52417056 319.32826555 322.84649149 356 287 C356.69996094 286.36191406 357.39992188 285.72382813 358.12109375 285.06640625 C369.85150261 274.11639881 378.7670337 260.20980262 386 246 C386.31662598 245.38979004 386.63325195 244.77958008 386.95947266 244.15087891 C396.29565509 225.99041961 401.19847302 206.13803513 404 186 C404.33 186 404.66 186 405 186 C405.22146783 194.42997425 404.64872256 202.48102143 403.375 210.8125 C403.19751221 211.98176025 403.02002441 213.15102051 402.8371582 214.35571289 C401.01012006 225.80241306 398.34966682 236.90842848 395 248 C394.74911621 248.83515137 394.49823242 249.67030273 394.23974609 250.53076172 C384.19496387 283.14562052 366.21088189 313.08309584 343 338 C341.78661781 339.39144666 340.57802197 340.78708639 339.375 342.1875 C333.68659978 348.68110756 327.61021623 354.27528833 320.875 359.68359375 C319.0240034 361.17495378 317.18909151 362.68661746 315.375 364.22265625 C302.6833391 374.93124514 288.66442695 383.29319543 274 391 C273.3493457 391.34772461 272.69869141 391.69544922 272.02832031 392.05371094 C250.87830663 403.22257442 226.54813867 410.30594915 203 414 C201.84443604 414.18256348 200.68887207 414.36512695 199.49829102 414.55322266 C188.22828263 416.15355387 177.0592251 416.39916633 165.6875 416.375 C164.72155914 416.37445618 163.75561829 416.37391235 162.76040649 416.37335205 C146.86322306 416.33232791 131.5804432 415.40757363 116 412 C115.01386719 411.78569336 114.02773437 411.57138672 113.01171875 411.35058594 C71.86866899 402.08935554 33.89013457 382.77513436 3 354 C1.60855334 352.78661781 0.21291361 351.57802197 -1.1875 350.375 C-7.6867634 344.68164526 -13.28769817 338.60133107 -18.6953125 331.85546875 C-20.14111475 330.06414427 -21.61176159 328.29229794 -23.1171875 326.55078125 C-54.76275899 289.63094785 -74.79402202 237.1204789 -75.23828125 188.4453125 C-75.2480751 187.55429337 -75.25786896 186.66327423 -75.26795959 185.74525452 C-75.51508714 157.41601087 -73.2341722 131.26537141 -65 104 C-64.74911621 103.16484863 -64.49823242 102.32969727 -64.23974609 101.46923828 C-52.36044606 62.89780043 -29.13074854 27.77583 0 0 Z " fill="#737375" transform="translate(91,80)"/>
<path d="M0 0 C3.55101981 2.79934409 6.79605015 5.81256536 10 9 C10.62648438 9.59167969 11.25296875 10.18335937 11.8984375 10.79296875 C20.19430153 19.29529094 26.32498176 32.15127562 27 44 C27.04624512 44.74910645 27.09249023 45.49821289 27.14013672 46.27001953 C28.12893808 64.62090593 24.76088605 80.79552594 12.375 95.12890625 C3.63835261 104.6665366 -7.31899276 111.91334509 -20 115 C-21.0725 115.309375 -22.145 115.61875 -23.25 115.9375 C-37.72049242 116.17867487 -51.9674818 106.68236961 -62 97 C-73.24569977 83.89598187 -79.94966436 67.62729791 -79.32421875 50.22265625 C-77.88822478 35.94922226 -73.70673313 24.33409532 -65 13 C-64.53851563 12.37222656 -64.07703125 11.74445313 -63.6015625 11.09765625 C-46.8834295 -10.21071558 -22.04509302 -14.30288123 0 0 Z " fill="#B8B7BC" transform="translate(183,115)"/>
<path d="M0 0 C11.11004019 8.28658637 17.61745778 18.60345211 20.6875 32 C21.92444771 43.87469806 20.14460426 57.42682279 12.6796875 67.17578125 C5.47339823 75.00214657 -3.20653449 78.67780595 -13.796875 79.41796875 C-23.81008522 79.82794949 -32.16351391 79.16594572 -41 74 C-41.81726563 73.53078125 -42.63453125 73.0615625 -43.4765625 72.578125 C-45.75873965 71.1584429 -47.87890178 69.64928721 -50 68 C-50.61488281 67.52304687 -51.22976563 67.04609375 -51.86328125 66.5546875 C-59.5129892 59.80394745 -65.12784244 47.93800365 -66.2331543 37.87792969 C-67.00632067 25.20621176 -65.91543698 13.84948586 -57.8125 3.5 C-42.80035711 -11.8680342 -17.11560965 -10.95399018 0 0 Z " fill="#B8B7BC" transform="translate(443,216)"/>
<path d="M0 0 C10.4168342 -0.31250503 20.02421655 -0.46013188 30 3 C30.99386719 3.3403125 31.98773438 3.680625 33.01171875 4.03125 C50.05551888 10.49087207 61.57703494 22.5098787 69.32421875 38.78125 C76.54722903 56.18091789 75.28970774 73.41637551 68.5625 90.69140625 C61.41255158 106.3491058 49.19615748 117.71599845 33.12890625 123.93359375 C22.9820706 127.39187856 13.70339001 128.43327066 3 128 C3 127.34 3 126.68 3 126 C3.66644531 125.78085938 4.33289063 125.56171875 5.01953125 125.3359375 C16.88928309 121.25207882 26.08312102 115.88537057 35 107 C35.56460938 106.45859375 36.12921875 105.9171875 36.7109375 105.359375 C46.520702 95.08247886 51.60301654 79.70721801 51.375 65.75 C51.36412354 64.83541016 51.35324707 63.92082031 51.34204102 62.97851562 C50.91966041 44.85918475 44.99958007 30.8404943 32 18 C31.38640625 17.36449219 30.7728125 16.72898437 30.140625 16.07421875 C22.02960061 8.25782559 10.82373124 3.61864465 0 1 C0 0.67 0 0.34 0 0 Z " fill="#757577" transform="translate(158,104)"/>
<path d="M0 0 C7.34620424 6.02537156 11.96913483 12.11463081 13.1875 21.6875 C12.14847515 30.14813089 7.81429148 36.43619013 1.75 42.25 C-7.22055698 49.06762331 -16.34461035 49.47060325 -27.25 48.25 C-34.95068481 46.11515669 -41.40402383 40.96147885 -45.53125 34.12890625 C-48.57716585 28.20024861 -50.60148124 22.78478946 -48.6015625 16.07421875 C-45.02468873 7.22374903 -38.91110053 0.35612635 -30.25 -3.75 C-19.99588759 -7.56780794 -8.94856036 -6.38694957 0 0 Z " fill="#B8B7BC" transform="translate(354.25,357.75)"/>
<path d="M0 0 C8.86655445 6.76506589 14.45382876 15.85226057 16.625 26.8125 C16.71657594 28.64401879 16.75503791 30.47870016 16.75 32.3125 C16.75386719 33.72015625 16.75386719 33.72015625 16.7578125 35.15625 C16.63892868 37.5339263 16.30051722 39.53933096 15.625 41.8125 C9.91067897 41.20215863 4.84288671 39.73569314 -0.5625 37.8125 C-1.43326172 37.50344727 -2.30402344 37.19439453 -3.20117188 36.87597656 C-16.79454879 31.94581218 -29.79370166 25.83188806 -42.5625 19.0625 C-43.43068359 18.61487305 -44.29886719 18.16724609 -45.19335938 17.70605469 C-45.98935547 17.27196289 -46.78535156 16.83787109 -47.60546875 16.390625 C-48.31082764 16.01325195 -49.01618652 15.63587891 -49.74291992 15.24707031 C-51.97837601 13.28214287 -52.12797326 11.72523758 -52.375 8.8125 C-50.29105012 3.30559172 -46.66974026 -0.43226048 -41.5 -3.125 C-27.32464394 -9.26060188 -13.2269958 -8.64378145 0 0 Z " fill="#B8B7BC" transform="translate(215.375,367.1875)"/>
<path d="M0 0 C4.47116028 2.49885205 7.17066789 6.19229924 9.8125 10.5 C10.18632812 11.10585938 10.56015625 11.71171875 10.9453125 12.3359375 C13.28464851 18.17373996 12.86767383 25.64990413 10.71484375 31.46484375 C7.1473877 37.79113247 2.82147634 42.16367455 -4.1875 44.5 C-11.47050052 45.54255631 -17.18529937 43.66586302 -23.1875 39.5 C-28.10127218 34.66659326 -29.87116404 28.91642832 -30.5 22.125 C-29.81579177 14.18818455 -27.2623283 7.8051668 -21.1875 2.5 C-14.59607486 -2.20021455 -7.50535007 -3.2022827 0 0 Z " fill="#B8B7BC" transform="translate(118.1875,282.5)"/>
<path d="M0 0 C5.27908893 4.64831543 8.51144261 9.30092264 9.4375 16.3125 C8.59738709 23.39345166 4.29619383 28.4696251 -1.19140625 32.8125 C-6.75959152 36.4685007 -13.54575201 36.79155872 -20 36 C-27.29763387 33.92621196 -32.47093823 28.41742789 -36.171875 21.953125 C-37.73337366 18.27034515 -37.56973068 14.76377701 -36.34765625 10.98046875 C-33.67562029 4.9827228 -29.76398966 0.76541108 -23.79296875 -2.03515625 C-15.22632864 -5.17285237 -7.93033543 -4.56248464 0 0 Z " fill="#B8B7BC" transform="translate(318,268)"/>
<path d="M0 0 C0 3.53837651 -1.01484317 5.29866194 -2.5 8.5 C-6.9301763 19.79631847 -6.77480591 33.08659499 -2.25 44.3671875 C-1.63125 45.67042969 -1.63125 45.67042969 -1 47 C-0.38125 48.30324219 -0.38125 48.30324219 0.25 49.6328125 C6.94972816 62.08060288 17.88316461 68.62772154 31 73 C45.03581765 74.38517126 56.42744032 72.46761484 69 66 C69 66.66 69 67.32 69 68 C59.57914425 77.25737019 47.16327748 83.23149808 33.875 83.375 C20.10095723 83.15744355 8.46060893 78.22399783 -1.6875 69 C-11.40581227 58.83368043 -15.47760246 45.61730009 -15.24609375 31.78125 C-14.44417633 19.45972515 -9.29848212 8.19151996 0 0 Z " fill="#757577" transform="translate(383,221)"/>
<path d="M0 0 C0.33 0.66 0.66 1.32 1 2 C0.3503125 3.2065625 0.3503125 3.2065625 -0.3125 4.4375 C-5.01123659 14.35705503 -4.38336858 24.53848838 -2 35 C1.82676043 45.20469447 9.0641014 53.48983011 19.03125 58.02734375 C28.45298417 61.11420139 38.47922692 62.00915626 48 59 C48.85980469 58.73316406 49.71960938 58.46632813 50.60546875 58.19140625 C52.7516728 57.49596959 54.87905742 56.76845746 57 56 C52.47416497 62.99447233 44.25653378 67.19349963 36.4140625 69.53515625 C23.76257527 71.97128405 12.59307995 68.9441738 2 62 C-5.71274952 56.10114759 -11.3267442 46.53755805 -13 37 C-13.86464126 23.63565361 -11.46473086 13.25022751 -2.6875 2.9375 C-1.800625 1.968125 -0.91375 0.99875 0 0 Z " fill="#616162" transform="translate(165,370)"/>
<path d="M0 0 C2.10116601 2.10116601 2.63802511 3.39921453 3.6875 6.125 C7.04827949 13.78216061 12.15167525 19.67644337 19.86328125 23.1484375 C28.28354286 25.43438648 38.56025493 25.64544402 46.625 22.0625 C55.19698972 16.80107183 60.00449318 9.43978793 63 0 C63.33 0 63.66 0 64 0 C65.34555537 9.26938145 61.81774606 16.37111331 57 24 C52.11059559 29.97469554 44.5028111 33.51067795 37 35 C29.06894342 35.70013669 22.87321212 35.11108015 16 31 C15.30003906 30.5875 14.60007812 30.175 13.87890625 29.75 C6.87241097 25.08783301 2.64334586 17.90556215 0 10 C-0.1953125 7.32421875 -0.1953125 7.32421875 -0.125 4.6875 C-0.10695313 3.80449219 -0.08890625 2.92148437 -0.0703125 2.01171875 C-0.04710937 1.34785156 -0.02390625 0.68398438 0 0 Z " fill="#767678" transform="translate(304,381)"/>
<path d="M0 0 C3.85085459 3.30073251 5.35051616 5.60309696 6.1875 10.625 C5.42525406 15.5372516 3.28841583 18.0072635 -0.375 21.25 C-4.59389575 23.87255682 -9.5386654 23.94212562 -14.375 23.25 C-18.70782707 21.04271074 -21.8505849 18.42499421 -24.375 14.25 C-24.97875017 10.09921757 -24.66225583 7.86041864 -22.875 4.0625 C-16.33385904 -3.29628359 -8.69982848 -4.51102218 0 0 Z " fill="#B8B7BC" transform="translate(345.375,106.75)"/>
<path d="M0 0 C1.72225991 2.23893788 3.25445765 4.43352045 4.6875 6.875 C8.13716264 11.53670626 12.45943302 15.15314434 18 17 C26.38825504 17.7747589 33.05305197 16.5307164 39.75 11.3125 C43.35970277 8.0332048 45.08345205 4.44639124 47 0 C47.33 0 47.66 0 48 0 C48.59482027 6.98913816 46.75666964 12.46545823 42.421875 18.0234375 C37.07425691 23.73238114 31.92463658 26.12143421 24.0625 26.4375 C15.74199067 26.16809372 11.27990484 23.63460317 5.625 17.625 C0.81565562 11.85378675 -0.30038588 7.50964705 0 0 Z " fill="#767678" transform="translate(280,286)"/>
<path d="M0 0 C8.10218256 0.56857421 13.24867628 2.88082016 18.8125 8.8125 C23.26249662 14.22034342 24.50822655 19.7669287 24.30859375 26.671875 C23.28657789 34.38227316 19.05281335 40.30779805 13 45 C8.79352858 47.56960537 4.92956161 48.36069963 0 48 C2.02248799 45.97751201 3.16521023 45.47442148 5.75 44.4375 C11.50474731 41.68067205 14.22965013 36.54069974 17 31 C17.8913327 22.60567684 17.61929474 16.03151715 12.71484375 8.9921875 C9.16954245 4.87350034 5.05168765 2.78294858 0 1 C0 0.67 0 0.34 0 0 Z " fill="#777779" transform="translate(112,280)"/>
<path d="M0 0 C0.556875 0.7425 1.11375 1.485 1.6875 2.25 C4.65855313 5.78314426 8.13180947 9.70170818 12.953125 10.203125 C18.08039184 10.3077631 21.61596369 9.95667565 26 7 C28.24850483 4.52338502 28.24850483 4.52338502 30 2 C30.66 1.34 31.32 0.68 32 0 C31.79131317 5.94757472 30.8340007 9.26408439 26.66015625 13.5859375 C22.75793512 16.90971174 19.00334521 17.17939529 14.0625 17 C8.66728821 16.31644376 5.44391008 14.14674887 2 10 C0.07835479 6.57445855 -0.22270002 3.89725029 0 0 Z " fill="#777779" transform="translate(320,119)"/>
<path d="M0 0 C0.515625 0.37125 1.03125 0.7425 1.5625 1.125 C1.5625 1.455 1.5625 1.785 1.5625 2.125 C-1.7375 2.455 -5.0375 2.785 -8.4375 3.125 C-8.7675 2.465 -9.0975 1.805 -9.4375 1.125 C-3.0375 -1.09038462 -3.0375 -1.09038462 0 0 Z " fill="#909091" transform="translate(350.4375,413.875)"/>
<path d="M0 0 C0.66 0.33 1.32 0.66 2 1 C-1.465 3.97 -1.465 3.97 -5 7 C-3.92643531 2.70574125 -3.4915227 2.25259529 0 0 Z " fill="#858586" transform="translate(97,75)"/>
<path d="M0 0 C2.35953094 2.35953094 2.49141413 3.77895617 3 7 C2.34 7 1.68 7 1 7 C0.67 7.99 0.34 8.98 0 10 C0 6.7 0 3.4 0 0 Z " fill="#808082" transform="translate(304,381)"/>
</svg>
